/* XPM */
static char *astronaut[] = {
/* columns rows colors chars-per-pixel */
"14 25 16 1 ",
"  c #271F29",
". c #58182C",
"X c #64626B",
"o c #8F5A6D",
"O c #787784",
"+ c #9A9A9F",
"@ c #B8B5CD",
"# c #BFC1C9",
"$ c #F9F9F9",
"% c black",
"& c black",
"* c black",
"= c black",
"- c black",
"; c black",
": c black",
/* pixels */
"$$$$$$$$$$$$$$",
"$$$$X+++++$$$$",
"$$#+$$$$$$X$$$",
"$$+$@++++#$X$$",
"$+$O+@@@#O@#$$",
"$+$X@@@@@@X$+$",
"$+#+O @# +X$+$",
"$+#+@@@@@@X$+$",
"$+$O#@@@+@X$+$",
"$+$X#@XX@+O$#$",
"$$+$X+@@OX$O$$",
"$$+O$#++#$X#$$",
"$$+$++#++#$X$$",
"$@$#$++++$$#$$",
"$+$+$X@ O$#$@$",
"$+$+#O@@X$#$+$",
"$O+X$++##$ ++$",
"$$XX++++++OX$$",
"$$$X$$$$$$X$$$",
"$$$O+##$#++$$$",
"$$$Xo....o+$$$",
"$$$+$$#$$$+$$$",
"$$$X  XX  +$$$",
"$$$XXX .XXX$$$",
"$$$$$$$$$$$$$$"
};
