<!--
https://www.stockio.com/free-icon/rocket-gradient-filled
-->
<svg xmlns="http://www.w3.org/2000/svg" width="21" height="25" viewBox="0 0 21 25">
  <defs>
    <linearGradient id="rocket-a" x1="50%" x2="50%" y1="0%" y2="97.622%">
      <stop offset="0%" stop-color="#EE4DB7"/>
      <stop offset="100%" stop-color="#C743F9"/>
    </linearGradient>
  </defs>
  <path fill="url(#rocket-a)" fill-rule="evenodd" d="M13.0002,11.501 C13.0002,9.755 11.8792,8.334 10.5002,8.334 C9.1212,8.334 8.0002,9.755 8.0002,11.501 C8.0002,13.247 9.1212,14.668 10.5002,14.668 C11.8792,14.668 13.0002,13.247 13.0002,11.501 M21.0002,22.501 C21.0002,22.726 20.8502,22.923 20.6342,22.983 C20.5892,22.995 20.5442,23.001 20.5002,23.001 C20.3282,23.001 20.1632,22.912 20.0712,22.758 C20.0562,22.732 18.6702,20.451 16.9092,19.054 C16.6272,20.177 15.6522,21.001 14.4862,21.001 L6.5142,21.001 C5.3442,21.001 4.3652,20.171 4.0872,19.056 C2.3282,20.454 0.9442,22.732 0.9292,22.758 C0.8372,22.912 0.6722,23.001 0.5002,23.001 C0.4562,23.001 0.4112,22.995 0.3662,22.983 C0.1502,22.923 0.0002,22.726 0.0002,22.501 C0.0002,19.801 0.8792,12.862 4.7822,12.096 C6.0402,6.196 8.5672,0.001 10.5002,0.001 C12.4342,0.001 14.9632,6.203 16.2202,12.096 C20.1212,12.865 21.0002,19.801 21.0002,22.501 M10.5002,9.334 C9.6872,9.334 9.0002,10.327 9.0002,11.501 C9.0002,12.675 9.6872,13.668 10.5002,13.668 C11.3132,13.668 12.0002,12.675 12.0002,11.501 C12.0002,10.327 11.3132,9.334 10.5002,9.334 M8.2972,22.001 L12.7032,22.001 C12.1332,23.553 10.9212,24.788 10.8542,24.855 C10.7562,24.952 10.6282,25.001 10.5002,25.001 C10.3722,25.001 10.2442,24.952 10.1462,24.855 C10.0792,24.788 8.8672,23.553 8.2972,22.001"/>
</svg>
