/* XPM */
static char *spaceship[] = {
/* columns rows colors chars-per-pixel */
"49 25 16 1 ",
"  c #232508",
". c #646A02",
"X c #4C4A34",
"o c #A03F67",
"O c #7C8200",
"+ c #389951",
"@ c #9B9904",
"# c #B4A8A8",
"$ c #FEFEFE",
"% c black",
"& c black",
"* c black",
"= c black",
"- c black",
"; c black",
": c black",
/* pixels */
"$$$$$$$$$$$$$$$$$$$$$$$#o#oo#$$$$$$$$$$$$$$$$$$$$",
"$$$$$$$$$$$$$$$$$$$$$#Xoo##$$#o$$$$$$$$$$$$$$$$$$",
"$$$$$$$$$$$$$$$$$$$$#ooooooooooo$$$$$$$$$$$$$$$$$",
"$$$$$$$$$$$$###$$$$$ ooooooooooo#$$$$$$$$$$$$$$$$",
"$$$$$$$$$$$X.@. +$$.@@@@O...oo..O.$$$$$$$$$$$$$$$",
"$$$$$$$$$$$ OO@@. X .@OO@@@@@OO.. XX#$$$$$$$$$$$$",
"$$$$$$$$$$$ @.   ++..X..X  . . ...... Xo$$$$$$$$$",
"$$$$$$$$$$$  X++++++....OOO...OO@OO..... X$$$$$$$",
"$$$$$$$$$$X +++++++.OO   XX X    XOO...OOO #$$$$$",
"$$$$$$$$$ .OX.X+++X.OOXX         OOO..OOO...X$$$$",
"$$$$$$$$ .@OOOOO.OOOOOO@@@@O@@@@XOO...OOOOOOX  X$",
"$@@@@@## .OOOOOO.OOOOOOOOO   XOOOOO.O.OOOO.O O@.#",
"@@@@@@@#..O.OOOOO.OOOOOOO  ++XX.OOO...OOOOO. @@ X",
"$$$##$$$ .OOOOO.....OOOOOX    OOOOO.O.O...O. OO X",
"$$$$$$$$$  ...X ....     .@..@.......OO...O. .O o",
"$$$$$$$$$$X . .......OO@O  ....OOOO.OOO..... .. #",
"$$$$$$$$$$$$ .......O....O OOOOOOOOO.OO.. ..   #$",
"$$$$$$$$$$$ OOOO.O....... .OOOOOO...X.. .   #$$$$",
"$$$$$$$$$$XOOOOOOOOO.OO  .. . ... ......   $$$$$$",
"$$$$$$$$$$ @.O.........  ............   X$$$$$$$$",
"$$$$$$$$$XOOOO @.   .O.OX     . X   XX#$$$$$$$$$$",
"$$$$$$$$$ OOOO ..    . . #$#######$$$$$$$$$$$$$$$",
"$$$$$$$$$X.....  o##+X  #$$$$$$$$$$$$$$$$$$$$$$$$",
"$$$$$$$$$$    o#$$$$$$$$$$$$$$$$$$$$$$$$$$$$$$$$$",
"$$$$$$$$$$$$$$$$$$$$$$$$$$$$$$$$$$$$$$$$$$$$$$$$$"
};
