/* XPM */
static char *ufo[] = {
/* columns rows colors chars-per-pixel */
"42 25 32 1 ",
"  c #232021",
". c #312E31",
"X c #3D3E3D",
"o c #4F3B35",
"O c #53582F",
"+ c #4F4C4D",
"@ c #675F60",
"# c #716F6F",
"$ c #B35C44",
"% c #69932A",
"& c #DFC43E",
"* c #5B7B8C",
"= c #5386A1",
"- c #3B91C0",
"; c #5BB2E0",
": c #71C6F4",
"> c #A4A19F",
", c #C1C0BF",
"< c #D5D0CD",
"1 c white",
"2 c black",
"3 c black",
"4 c black",
"5 c black",
"6 c black",
"7 c black",
"8 c black",
"9 c black",
"0 c black",
"q c black",
"w c black",
"e c black",
/* pixels */
"111111111111111111111111111111111111111111",
"111111111111111111111111111111111111111111",
"111111111111111111111111111111111111111111",
"11111111111111,+11111111111111111111111111",
"111111111111111<<1111111111111111111111111",
"1111111111111111,1111111111111111111111111",
"11111111111111111<111111111111111111111111",
"11111111111111111<1<,><1111111111111111111",
"1111111111111111<=*;;:;*=<1111111111111111",
"111111111111111>=::::::::->111111111111111",
"11111111111111>:::::::;;;;;=11111111111111",
"11111111111111=::::::::::;;=11111111111111",
"1111111111111>;;==========-->1111111111111",
"11111111,>>#++#########@@@@+o.+#>,11111111",
"1111<>@@###>#*######++#@@@@@@@+++X.X><1111",
"111#@=#######++.###.%% @@+.o.+++.+++X.+111",
"11+#*@@*+%+#@$&$X#.&&&&.OO$&$o+o%OO+o++ 11",
"1>###$$#%&@#o&>&.# &&&&OO &&$o+O&OXo$++.>1",
"11#@#@@#+++@@o$O+@O%&&O.OXO$o++oO.++Xo.@11",
"111,#+@@@#@@@+.++O+....+OOX.++++++X+ @,111",
"111111>#+.++X+++o++++++++++XoXX. .#>111111",
"1111111111<>>#@+o..    ..X+@#>><1111111111",
"111111111111111111111111111111111111111111",
"111111111111111111111111111111111111111111",
"111111111111111111111111111111111111111111"
};
